<svg xmlns="http://www.w3.org/2000/svg" fill="none" viewBox="0 0 24 24" height="24" width="24" id="Cart-Add--Streamline-Platinum.svg"><desc>Cart Add Streamline Icon: https://streamlinehq.com</desc><g id="cart-add"><path id="Vector" stroke="#000000" d="M7.59 5.63H12M12 5.63H16.41M12 5.63V1.22M12 5.63V10.04M19.35 5.63H23.27C22.29 12.98 19.84 16.41 19.84 16.41S17.88 17.39 13.47 17.39S7.1 16.41 7.1 16.41L2.935 0.73H0.73M11.02 21.31C11.02 22.8188 9.3867 23.7618 8.08 23.0074C7.4736 22.6573 7.1 22.0102 7.1 21.31C7.1 19.8012 8.7333 18.8582 10.04 19.6126C10.6464 19.9627 11.02 20.6098 11.02 21.31ZM19.84 21.31C19.84 22.8188 18.2067 23.7618 16.9 23.0074C16.2936 22.6573 15.92 22.0102 15.92 21.31C15.92 19.8012 17.5533 18.8582 18.86 19.6126C19.4664 19.9627 19.84 20.6098 19.84 21.31Z" stroke-width="1"></path></g></svg>