<svg xmlns="http://www.w3.org/2000/svg" viewBox="0 0 24 24" height="24" width="24" id="Move-Back--Streamline-Ultimate.svg"><desc>Move Back Streamline Icon: https://streamlinehq.com</desc><path d="M5.42 16.41a1 1 0 0 0 1.7 -0.7v-3.29a0.25 0.25 0 0 1 0.25 -0.25h13.55a0.25 0.25 0 0 1 0.25 0.25v5.2a1.25 1.25 0 1 0 2.5 0v-6.7a1.25 1.25 0 0 0 -1.25 -1.25h-15a0.26 0.26 0 0 1 -0.25 -0.25v-3.3a1 1 0 0 0 -0.61 -0.92 1 1 0 0 0 -1.09 0.22L0.63 10.21a1 1 0 0 0 -0.3 0.71 1 1 0 0 0 0.3 0.7Z" fill="#8f8f8f" stroke-width="1"></path></svg>