<svg xmlns="http://www.w3.org/2000/svg" fill="none" viewBox="0 0 24 24" height="24" width="24" id="Navigation-Menu-Vertical-1--Streamline-Ultimate.svg"><desc>Navigation Menu Vertical 1 Streamline Icon: https://streamlinehq.com</desc><path fill="#000000" fill-rule="evenodd" d="M2.02236 18.6668C0.703787 16.6935 0 14.3734 0 12c0 -3.1826 1.26428 -6.23484 3.51472 -8.48528C5.76515 1.26428 8.8174 0 12 0c2.3734 0 4.6935 0.70379 6.6668 2.02237 1.9734 1.31857 3.5115 3.19272 4.4198 5.38543 0.9082 2.19271 1.1458 4.6055 0.6828 6.9333 -0.463 2.3278 -1.6059 4.466 -3.2841 6.1442 -1.6782 1.6782 -3.8164 2.8211 -6.1442 3.2841 -2.3278 0.463 -4.74059 0.2254 -6.9333 -0.6828 -2.19271 -0.9083 -4.06686 -2.4464 -5.38544 -4.4198Zm18.29234 -1.1111C21.4135 15.9112 22 13.9778 22 12c0 -2.65216 -1.0536 -5.1957 -2.9289 -7.07107C17.1957 3.05357 14.6522 2 12 2c-1.9778 0 -3.91121 0.58649 -5.5557 1.68531 -1.64449 1.09881 -2.92622 2.6606 -3.6831 4.48786 -0.75687 1.82723 -0.95491 3.83793 -0.56905 5.77773 0.38585 1.9398 1.33826 3.7216 2.73678 5.1202 1.39853 1.3985 3.18036 2.3509 5.12017 2.7368 1.9398 0.3858 3.9505 0.1878 5.7777 -0.5691 1.8273 -0.7569 3.3891 -2.0386 4.4879 -3.6831ZM12 10c1.1046 0 2 0.8954 2 2s-0.8954 2 -2 2 -2 -0.8954 -2 -2 0.8954 -2 2 -2Zm2 -3.49999c0 -1.10457 -0.8954 -2 -2 -2s-2 0.89543 -2 2 0.8954 2 2 2 2 -0.89543 2 -2ZM12 15.5c1.1046 0 2 0.8954 2 2s-0.8954 2 -2 2 -2 -0.8954 -2 -2 0.8954 -2 2 -2Z" clip-rule="evenodd" stroke-width="1"></path></svg>