<svg xmlns="http://www.w3.org/2000/svg" viewBox="0 0 24 24" height="24" width="24" id="User-Logout--Streamline-Ultimate.svg"><desc>User Logout Streamline Icon: https://streamlinehq.com</desc><g><path d="M5 8.28A5.66 5.66 0 0 0 0 14v3.25a0.5 0.5 0 0 0 0.5 0.5h1.81a0.25 0.25 0 0 1 0.25 0.23L3 23.29a0.5 0.5 0 0 0 0.5 0.46h4a0.5 0.5 0 0 0 0.5 -0.46L8.44 18a0.25 0.25 0 0 1 0.25 -0.23h1.81a0.5 0.5 0 0 0 0.5 -0.5v-3.5a5.51 5.51 0 0 0 -6 -5.49Z" fill="#000000" stroke-width="1"></path><path d="M2 3.75a3.5 3.5 0 1 0 7 0 3.5 3.5 0 1 0 -7 0" fill="#000000" stroke-width="1"></path><path d="m23.56 7.19 -3 -3a1.5 1.5 0 1 0 -2.12 2.12l0.44 0.44H13.5a1.5 1.5 0 0 0 0 3h5.38l-0.44 0.44a1.49 1.49 0 0 0 0 2.12 1.52 1.52 0 0 0 2.12 0l3 -3a1.49 1.49 0 0 0 0 -2.12Z" fill="#000000" stroke-width="1"></path></g></svg>